<mxfile host="app.diagrams.net" modified="2022-05-14T22:27:15.469Z" agent="5.0 (Windows NT 10.0; Win64; x64) AppleWebKit/537.36 (KHTML, like Gecko) Chrome/99.0.4844.84 Safari/537.36 OPR/85.0.4341.79" etag="9ZOks686y8si1p90UPyE" version="17.5.0" type="github">
  <diagram id="wo_d2EQ94wxBMIecdlTR" name="Page-1">
    <mxGraphModel dx="1381" dy="764" grid="1" gridSize="10" guides="1" tooltips="1" connect="1" arrows="1" fold="1" page="1" pageScale="1" pageWidth="1169" pageHeight="827" math="0" shadow="0">
      <root>
        <mxCell id="0" />
        <mxCell id="1" parent="0" />
        <mxCell id="ZiyZV4W5BUeQNelMZz2S-1" value="" style="ellipse;html=1;shape=startState;fillColor=#000000;strokeColor=#ff0000;" vertex="1" parent="1">
          <mxGeometry x="85" width="30" height="30" as="geometry" />
        </mxCell>
        <mxCell id="ZiyZV4W5BUeQNelMZz2S-2" value="" style="edgeStyle=orthogonalEdgeStyle;html=1;verticalAlign=bottom;endArrow=open;endSize=8;strokeColor=#ff0000;rounded=0;" edge="1" source="ZiyZV4W5BUeQNelMZz2S-1" parent="1">
          <mxGeometry relative="1" as="geometry">
            <mxPoint x="100" y="90" as="targetPoint" />
          </mxGeometry>
        </mxCell>
        <mxCell id="ZiyZV4W5BUeQNelMZz2S-5" value="" style="edgeStyle=orthogonalEdgeStyle;rounded=0;orthogonalLoop=1;jettySize=auto;html=1;entryX=0.5;entryY=0;entryDx=0;entryDy=0;entryPerimeter=0;" edge="1" parent="1" source="ZiyZV4W5BUeQNelMZz2S-3" target="ZiyZV4W5BUeQNelMZz2S-6">
          <mxGeometry relative="1" as="geometry">
            <mxPoint x="95" y="210" as="targetPoint" />
          </mxGeometry>
        </mxCell>
        <mxCell id="ZiyZV4W5BUeQNelMZz2S-3" value="load" style="html=1;shape=mxgraph.infographic.ribbonSimple;notch1=20;notch2=0;align=center;verticalAlign=middle;fontSize=14;fontStyle=0;fillColor=#FFFFFF;flipH=0;spacingRight=0;spacingLeft=14;" vertex="1" parent="1">
          <mxGeometry x="15" y="100" width="170" height="40" as="geometry" />
        </mxCell>
        <mxCell id="ZiyZV4W5BUeQNelMZz2S-10" style="edgeStyle=orthogonalEdgeStyle;rounded=0;orthogonalLoop=1;jettySize=auto;html=1;entryX=0.5;entryY=0;entryDx=0;entryDy=0;" edge="1" parent="1" source="ZiyZV4W5BUeQNelMZz2S-6" target="ZiyZV4W5BUeQNelMZz2S-8">
          <mxGeometry relative="1" as="geometry" />
        </mxCell>
        <mxCell id="ZiyZV4W5BUeQNelMZz2S-6" value="hndLoad" style="shape=mxgraph.uml25.behaviorAction;html=1;rounded=1;absoluteArcSize=1;arcSize=10;align=left;spacingLeft=5;" vertex="1" parent="1">
          <mxGeometry x="10" y="180" width="180" height="60" as="geometry" />
        </mxCell>
        <mxCell id="ZiyZV4W5BUeQNelMZz2S-7" value="hndLoad" style="shape=umlFrame;whiteSpace=wrap;html=1;width=70;height=30;boundedLbl=1;verticalAlign=middle;align=left;spacingLeft=5;rounded=1;" vertex="1" parent="1">
          <mxGeometry x="10" y="360" width="770" height="1040" as="geometry" />
        </mxCell>
        <mxCell id="ZiyZV4W5BUeQNelMZz2S-8" value="" style="ellipse;html=1;shape=endState;fillColor=#000000;strokeColor=#ff0000;rounded=1;" vertex="1" parent="1">
          <mxGeometry x="85" y="300" width="30" height="30" as="geometry" />
        </mxCell>
        <mxCell id="ZiyZV4W5BUeQNelMZz2S-17" value="" style="edgeStyle=orthogonalEdgeStyle;rounded=0;orthogonalLoop=1;jettySize=auto;html=1;" edge="1" parent="1" source="ZiyZV4W5BUeQNelMZz2S-12" target="ZiyZV4W5BUeQNelMZz2S-16">
          <mxGeometry relative="1" as="geometry" />
        </mxCell>
        <mxCell id="ZiyZV4W5BUeQNelMZz2S-12" value="canvas: HTMLCanvasElement&lt;br&gt;&lt;br&gt;crc2: CanvasRenderingContext2D" style="rounded=0;whiteSpace=wrap;html=1;" vertex="1" parent="1">
          <mxGeometry x="35" y="470" width="225" height="60" as="geometry" />
        </mxCell>
        <mxCell id="ZiyZV4W5BUeQNelMZz2S-13" value="" style="ellipse;html=1;shape=startState;fillColor=#000000;strokeColor=#ff0000;rounded=1;" vertex="1" parent="1">
          <mxGeometry x="132.5" y="360" width="30" height="30" as="geometry" />
        </mxCell>
        <mxCell id="ZiyZV4W5BUeQNelMZz2S-14" value="" style="edgeStyle=orthogonalEdgeStyle;html=1;verticalAlign=bottom;endArrow=open;endSize=8;strokeColor=#ff0000;rounded=0;entryX=0.5;entryY=0;entryDx=0;entryDy=0;" edge="1" source="ZiyZV4W5BUeQNelMZz2S-13" parent="1" target="ZiyZV4W5BUeQNelMZz2S-12">
          <mxGeometry relative="1" as="geometry">
            <mxPoint x="147.5" y="450" as="targetPoint" />
          </mxGeometry>
        </mxCell>
        <mxCell id="ZiyZV4W5BUeQNelMZz2S-24" style="edgeStyle=orthogonalEdgeStyle;rounded=0;orthogonalLoop=1;jettySize=auto;html=1;exitX=0.5;exitY=1;exitDx=0;exitDy=0;" edge="1" parent="1" source="ZiyZV4W5BUeQNelMZz2S-16" target="ZiyZV4W5BUeQNelMZz2S-18">
          <mxGeometry relative="1" as="geometry" />
        </mxCell>
        <mxCell id="ZiyZV4W5BUeQNelMZz2S-16" value="canvas size to window inner size" style="whiteSpace=wrap;html=1;rounded=1;" vertex="1" parent="1">
          <mxGeometry x="87.5" y="540" width="120" height="60" as="geometry" />
        </mxCell>
        <mxCell id="ZiyZV4W5BUeQNelMZz2S-25" style="edgeStyle=orthogonalEdgeStyle;rounded=0;orthogonalLoop=1;jettySize=auto;html=1;" edge="1" parent="1" source="ZiyZV4W5BUeQNelMZz2S-18" target="ZiyZV4W5BUeQNelMZz2S-19">
          <mxGeometry relative="1" as="geometry" />
        </mxCell>
        <mxCell id="ZiyZV4W5BUeQNelMZz2S-18" value="drawHorizon(_x, _y)" style="shape=mxgraph.uml25.behaviorAction;html=1;rounded=1;absoluteArcSize=1;arcSize=10;align=left;spacingLeft=5;" vertex="1" parent="1">
          <mxGeometry x="52.5" y="610" width="190" height="60" as="geometry" />
        </mxCell>
        <mxCell id="ZiyZV4W5BUeQNelMZz2S-26" style="edgeStyle=orthogonalEdgeStyle;rounded=0;orthogonalLoop=1;jettySize=auto;html=1;" edge="1" parent="1" source="ZiyZV4W5BUeQNelMZz2S-19" target="ZiyZV4W5BUeQNelMZz2S-20">
          <mxGeometry relative="1" as="geometry" />
        </mxCell>
        <mxCell id="ZiyZV4W5BUeQNelMZz2S-19" value="drawSun(_x, _y)" style="shape=mxgraph.uml25.behaviorAction;html=1;rounded=1;absoluteArcSize=1;arcSize=10;align=left;spacingLeft=5;" vertex="1" parent="1">
          <mxGeometry x="52.5" y="690" width="190" height="60" as="geometry" />
        </mxCell>
        <mxCell id="ZiyZV4W5BUeQNelMZz2S-28" style="edgeStyle=orthogonalEdgeStyle;rounded=0;orthogonalLoop=1;jettySize=auto;html=1;" edge="1" parent="1" source="ZiyZV4W5BUeQNelMZz2S-20" target="ZiyZV4W5BUeQNelMZz2S-22">
          <mxGeometry relative="1" as="geometry" />
        </mxCell>
        <mxCell id="ZiyZV4W5BUeQNelMZz2S-20" value="drawWater(_x, _y)" style="shape=mxgraph.uml25.behaviorAction;html=1;rounded=1;absoluteArcSize=1;arcSize=10;align=left;spacingLeft=5;" vertex="1" parent="1">
          <mxGeometry x="52.5" y="760" width="190" height="60" as="geometry" />
        </mxCell>
        <mxCell id="ZiyZV4W5BUeQNelMZz2S-29" style="edgeStyle=orthogonalEdgeStyle;rounded=0;orthogonalLoop=1;jettySize=auto;html=1;" edge="1" parent="1" source="ZiyZV4W5BUeQNelMZz2S-22" target="ZiyZV4W5BUeQNelMZz2S-23">
          <mxGeometry relative="1" as="geometry" />
        </mxCell>
        <mxCell id="ZiyZV4W5BUeQNelMZz2S-22" value="drawBeach(_x, _y)" style="shape=mxgraph.uml25.behaviorAction;html=1;rounded=1;absoluteArcSize=1;arcSize=10;align=left;spacingLeft=5;" vertex="1" parent="1">
          <mxGeometry x="52.5" y="840" width="190" height="60" as="geometry" />
        </mxCell>
        <mxCell id="ZiyZV4W5BUeQNelMZz2S-41" value="" style="edgeStyle=orthogonalEdgeStyle;rounded=0;orthogonalLoop=1;jettySize=auto;html=1;" edge="1" parent="1" source="ZiyZV4W5BUeQNelMZz2S-23" target="ZiyZV4W5BUeQNelMZz2S-40">
          <mxGeometry relative="1" as="geometry" />
        </mxCell>
        <mxCell id="ZiyZV4W5BUeQNelMZz2S-23" value="drawClouds(_x, _y)" style="shape=mxgraph.uml25.behaviorAction;html=1;rounded=1;absoluteArcSize=1;arcSize=10;align=left;spacingLeft=5;" vertex="1" parent="1">
          <mxGeometry x="52.5" y="920" width="190" height="60" as="geometry" />
        </mxCell>
        <mxCell id="ZiyZV4W5BUeQNelMZz2S-50" value="" style="edgeStyle=orthogonalEdgeStyle;rounded=0;orthogonalLoop=1;jettySize=auto;html=1;" edge="1" parent="1" source="ZiyZV4W5BUeQNelMZz2S-30" target="ZiyZV4W5BUeQNelMZz2S-49">
          <mxGeometry relative="1" as="geometry" />
        </mxCell>
        <mxCell id="ZiyZV4W5BUeQNelMZz2S-30" value="drawPerson(_x, _y)" style="shape=mxgraph.uml25.behaviorAction;html=1;rounded=1;absoluteArcSize=1;arcSize=10;align=left;spacingLeft=5;" vertex="1" parent="1">
          <mxGeometry x="560" y="980" width="190" height="45" as="geometry" />
        </mxCell>
        <mxCell id="ZiyZV4W5BUeQNelMZz2S-35" value="All functions use parameters according to their position in the final picture, for context look at the scribble" style="shape=note2;boundedLbl=1;whiteSpace=wrap;html=1;size=15;verticalAlign=top;align=center;rounded=1;dashed=1;" vertex="1" parent="1">
          <mxGeometry x="585" y="380" width="170" height="100" as="geometry" />
        </mxCell>
        <mxCell id="ZiyZV4W5BUeQNelMZz2S-43" value="" style="edgeStyle=orthogonalEdgeStyle;rounded=0;orthogonalLoop=1;jettySize=auto;html=1;" edge="1" parent="1" source="ZiyZV4W5BUeQNelMZz2S-40" target="ZiyZV4W5BUeQNelMZz2S-42">
          <mxGeometry relative="1" as="geometry" />
        </mxCell>
        <mxCell id="ZiyZV4W5BUeQNelMZz2S-40" value="i=0" style="whiteSpace=wrap;html=1;align=left;rounded=0;arcSize=10;spacingLeft=5;" vertex="1" parent="1">
          <mxGeometry x="357.5" y="935" width="32.5" height="30" as="geometry" />
        </mxCell>
        <mxCell id="ZiyZV4W5BUeQNelMZz2S-46" style="edgeStyle=orthogonalEdgeStyle;rounded=0;orthogonalLoop=1;jettySize=auto;html=1;exitX=1;exitY=0.5;exitDx=0;exitDy=0;entryX=-0.016;entryY=0.567;entryDx=0;entryDy=0;entryPerimeter=0;" edge="1" parent="1" source="ZiyZV4W5BUeQNelMZz2S-42" target="ZiyZV4W5BUeQNelMZz2S-30">
          <mxGeometry relative="1" as="geometry" />
        </mxCell>
        <mxCell id="ZiyZV4W5BUeQNelMZz2S-47" style="edgeStyle=orthogonalEdgeStyle;rounded=0;orthogonalLoop=1;jettySize=auto;html=1;exitX=0.5;exitY=1;exitDx=0;exitDy=0;startArrow=none;" edge="1" parent="1" source="ZiyZV4W5BUeQNelMZz2S-51" target="ZiyZV4W5BUeQNelMZz2S-59">
          <mxGeometry relative="1" as="geometry">
            <mxPoint x="147.5" y="1150" as="targetPoint" />
          </mxGeometry>
        </mxCell>
        <mxCell id="ZiyZV4W5BUeQNelMZz2S-42" value="" style="rhombus;whiteSpace=wrap;html=1;align=left;rounded=0;arcSize=10;spacingLeft=5;" vertex="1" parent="1">
          <mxGeometry x="446.25" y="910" width="80" height="80" as="geometry" />
        </mxCell>
        <mxCell id="ZiyZV4W5BUeQNelMZz2S-48" value="[i = 6]" style="text;html=1;strokeColor=none;fillColor=none;align=center;verticalAlign=middle;whiteSpace=wrap;rounded=0;" vertex="1" parent="1">
          <mxGeometry x="400" y="1020" width="60" height="30" as="geometry" />
        </mxCell>
        <mxCell id="ZiyZV4W5BUeQNelMZz2S-53" style="edgeStyle=orthogonalEdgeStyle;rounded=0;orthogonalLoop=1;jettySize=auto;html=1;entryX=0.5;entryY=0;entryDx=0;entryDy=0;" edge="1" parent="1" source="ZiyZV4W5BUeQNelMZz2S-49" target="ZiyZV4W5BUeQNelMZz2S-42">
          <mxGeometry relative="1" as="geometry" />
        </mxCell>
        <mxCell id="ZiyZV4W5BUeQNelMZz2S-49" value="i++" style="whiteSpace=wrap;html=1;align=left;rounded=1;arcSize=10;spacingLeft=5;" vertex="1" parent="1">
          <mxGeometry x="570" y="860" width="30" height="27.5" as="geometry" />
        </mxCell>
        <mxCell id="ZiyZV4W5BUeQNelMZz2S-51" value="i=0" style="whiteSpace=wrap;html=1;align=left;rounded=0;arcSize=10;spacingLeft=5;" vertex="1" parent="1">
          <mxGeometry x="130" y="1100" width="32.5" height="30" as="geometry" />
        </mxCell>
        <mxCell id="ZiyZV4W5BUeQNelMZz2S-52" value="" style="edgeStyle=orthogonalEdgeStyle;rounded=0;orthogonalLoop=1;jettySize=auto;html=1;exitX=0.5;exitY=1;exitDx=0;exitDy=0;endArrow=none;" edge="1" parent="1" source="ZiyZV4W5BUeQNelMZz2S-42" target="ZiyZV4W5BUeQNelMZz2S-51">
          <mxGeometry relative="1" as="geometry">
            <mxPoint x="486.25" y="990" as="sourcePoint" />
            <mxPoint x="147.5" y="1150" as="targetPoint" />
          </mxGeometry>
        </mxCell>
        <mxCell id="ZiyZV4W5BUeQNelMZz2S-54" value="" style="edgeStyle=orthogonalEdgeStyle;rounded=0;orthogonalLoop=1;jettySize=auto;html=1;" edge="1" parent="1" source="ZiyZV4W5BUeQNelMZz2S-55" target="ZiyZV4W5BUeQNelMZz2S-62">
          <mxGeometry relative="1" as="geometry" />
        </mxCell>
        <mxCell id="ZiyZV4W5BUeQNelMZz2S-55" value="drawBird(_x, _y)" style="shape=mxgraph.uml25.behaviorAction;html=1;rounded=1;absoluteArcSize=1;arcSize=10;align=left;spacingLeft=5;" vertex="1" parent="1">
          <mxGeometry x="362.5" y="1190" width="190" height="45" as="geometry" />
        </mxCell>
        <mxCell id="ZiyZV4W5BUeQNelMZz2S-58" style="edgeStyle=orthogonalEdgeStyle;rounded=0;orthogonalLoop=1;jettySize=auto;html=1;exitX=1;exitY=0.5;exitDx=0;exitDy=0;entryX=-0.016;entryY=0.567;entryDx=0;entryDy=0;entryPerimeter=0;" edge="1" parent="1" source="ZiyZV4W5BUeQNelMZz2S-59" target="ZiyZV4W5BUeQNelMZz2S-55">
          <mxGeometry relative="1" as="geometry" />
        </mxCell>
        <mxCell id="ZiyZV4W5BUeQNelMZz2S-64" style="edgeStyle=orthogonalEdgeStyle;rounded=0;orthogonalLoop=1;jettySize=auto;html=1;exitX=0.5;exitY=1;exitDx=0;exitDy=0;entryX=0.5;entryY=0;entryDx=0;entryDy=0;" edge="1" parent="1" source="ZiyZV4W5BUeQNelMZz2S-59" target="ZiyZV4W5BUeQNelMZz2S-63">
          <mxGeometry relative="1" as="geometry" />
        </mxCell>
        <mxCell id="ZiyZV4W5BUeQNelMZz2S-59" value="" style="rhombus;whiteSpace=wrap;html=1;align=left;rounded=0;arcSize=10;spacingLeft=5;" vertex="1" parent="1">
          <mxGeometry x="248.75" y="1120" width="80" height="80" as="geometry" />
        </mxCell>
        <mxCell id="ZiyZV4W5BUeQNelMZz2S-60" value="[i = 2]" style="text;html=1;strokeColor=none;fillColor=none;align=center;verticalAlign=middle;whiteSpace=wrap;rounded=0;dashed=1;" vertex="1" parent="1">
          <mxGeometry x="220" y="1241" width="60" height="30" as="geometry" />
        </mxCell>
        <mxCell id="ZiyZV4W5BUeQNelMZz2S-61" style="edgeStyle=orthogonalEdgeStyle;rounded=0;orthogonalLoop=1;jettySize=auto;html=1;entryX=0.5;entryY=0;entryDx=0;entryDy=0;" edge="1" parent="1" source="ZiyZV4W5BUeQNelMZz2S-62" target="ZiyZV4W5BUeQNelMZz2S-59">
          <mxGeometry relative="1" as="geometry" />
        </mxCell>
        <mxCell id="ZiyZV4W5BUeQNelMZz2S-62" value="i++" style="whiteSpace=wrap;html=1;align=left;rounded=1;arcSize=10;spacingLeft=5;" vertex="1" parent="1">
          <mxGeometry x="372.5" y="1070" width="30" height="27.5" as="geometry" />
        </mxCell>
        <mxCell id="ZiyZV4W5BUeQNelMZz2S-63" value="" style="ellipse;html=1;shape=endState;fillColor=#000000;strokeColor=#ff0000;rounded=0;" vertex="1" parent="1">
          <mxGeometry x="273.75" y="1300" width="30" height="30" as="geometry" />
        </mxCell>
        <mxCell id="ZiyZV4W5BUeQNelMZz2S-67" style="edgeStyle=orthogonalEdgeStyle;rounded=0;orthogonalLoop=1;jettySize=auto;html=1;exitX=0.5;exitY=0;exitDx=0;exitDy=0;exitPerimeter=0;dashed=1;" edge="1" parent="1" source="ZiyZV4W5BUeQNelMZz2S-66" target="ZiyZV4W5BUeQNelMZz2S-30">
          <mxGeometry relative="1" as="geometry" />
        </mxCell>
        <mxCell id="ZiyZV4W5BUeQNelMZz2S-68" style="edgeStyle=orthogonalEdgeStyle;rounded=0;orthogonalLoop=1;jettySize=auto;html=1;entryX=0.997;entryY=0.244;entryDx=0;entryDy=0;entryPerimeter=0;dashed=1;" edge="1" parent="1" source="ZiyZV4W5BUeQNelMZz2S-66" target="ZiyZV4W5BUeQNelMZz2S-55">
          <mxGeometry relative="1" as="geometry" />
        </mxCell>
        <mxCell id="ZiyZV4W5BUeQNelMZz2S-66" value="Person and Bird are placed randomly in their assigned position" style="shape=note2;boundedLbl=1;whiteSpace=wrap;html=1;size=25;verticalAlign=top;align=center;rounded=0;dashed=1;" vertex="1" parent="1">
          <mxGeometry x="610" y="1090" width="120" height="100" as="geometry" />
        </mxCell>
      </root>
    </mxGraphModel>
  </diagram>
</mxfile>
